<?xml version="1.0" encoding="utf-8"?>
<!-- Generator: Adobe Illustrator 21.0.0, SVG Export Plug-In . SVG Version: 6.00 Build 0)  -->
<svg version="1.1" id="Layer_1" xmlns="http://www.w3.org/2000/svg" xmlns:xlink="http://www.w3.org/1999/xlink" x="0px" y="0px"
	 viewBox="0 0 120 94" style="enable-background:new 0 0 120 94;" xml:space="preserve">
<style type="text/css">
	.st0{fill:#0096D6;}
	.st1{fill:#FFFFFF;}
</style>
<title>A873B3F3-F051-42EF-88AC-A669B560B701</title>
<desc>Created with sketchtool.</desc>
<path class="st0" d="M118.5,39c0-4.8-3.9-8.7-8.7-8.7H99.2v-4.6c0-4.8-3.9-8.7-8.7-8.7c0,0-39.3,0.1-39.6,0.1v-4.9
	c0-4.8-3.9-8.7-8.7-8.7H11.2c-4.8,0-8.7,3.9-8.7,8.7v69.6c0,4.8,3.9,8.7,8.7,8.7h79.6c4,0,7.3-2.7,8.4-6.4l0,0L118.5,39z"/>
<path class="st1" d="M34,38h70.4c1.8,0,3,1.8,2.3,3.4L90.1,80.9c-0.4,0.9-1.3,1.5-2.3,1.5H17.1c-1.8,0-3-1.8-2.3-3.4l16.9-39.5
	C32.2,38.6,33.1,38,34,38z"/>
</svg>
